# xmcd
#
# Track frame offsets: 
#        150
#        8533
#        31443
#        45170
#        58554
#        63927
#        70138
#        100267
#        113532
#        126425
#        130256
#        136412
#        163675
#        173781
#        187189
#        195860
#        201405
#        230908
#        244456
#        258713
#        264810
#        271161
#        294536
#        311059
#        328542
#
# Disc length: 4432 seconds
#
# Revision: 0
# Processed by: cddbd v1.5.2PL0 Copyright (c) Steve Scherf et al.
# Submitted via: ExactAudioCopy v1.0b1
#
DISCID=6f114e19
DTITLE=Various Artist - The Complete Mothers Best Recordings CD5
DYEAR=2010
DGENRE=Country
TTITLE0=Introduction
TTITLE1=Move It on Over
TTITLE2=Audrey Williams and the Drifting Cowboys: Waltz of the Wind
TTITLE3=I’ll Have a New Life
TTITLE4=Closing
TTITLE5=Introduction
TTITLE6=Faded Love and Winter Roses
TTITLE7=Audrey Williams and the Drifting Cowboys: Four Flusher
TTITLE8=I Saw the Light
TTITLE9=Closing
TTITLE10=Introduction
TTITLE11=At the First Fall of Snow
TTITLE12=Audrey Williams and the Drifting Cowboys: I Like that Kind
TTITLE13=When God Dips His Love in My Heart
TTITLE14=Closing
TTITLE15=Introduction
TTITLE16=Wedding Bells
TTITLE17=Audrey Williams and the Drifting Cowboys: My Tight Wad Daddy
TTITLE18=Where the Soul of Man Never Dies
TTITLE19=Closing
TTITLE20=Introduction
TTITLE21=Why Don’t You Love Me
TTITLE22=Audrey Williams and the Drifting Cowboys: Blue Love (In My Hear
TTITLE22=t)
TTITLE23=Hank and Audrey with the Drifting Cowboys: Dear Brother
TTITLE24=Closing
EXTD=
EXTT0=
EXTT1=
EXTT2=
EXTT3=
EXTT4=
EXTT5=
EXTT6=
EXTT7=
EXTT8=
EXTT9=
EXTT10=
EXTT11=
EXTT12=
EXTT13=
EXTT14=
EXTT15=
EXTT16=
EXTT17=
EXTT18=
EXTT19=
EXTT20=
EXTT21=
EXTT22=
EXTT23=
EXTT24=
PLAYORDER=
